<?xml version="1.0" encoding="UTF-8"?>
<svg version="1.1" xmlns="http://www.w3.org/2000/svg" width="512" height="512">
<path d="M0 0 C7.69667343 4.25863732 13.21818519 13.13564557 16.171875 21.19921875 C18.24426038 27.0029831 18.24426038 27.0029831 22.76074219 30.9140625 C26.36979372 32.22456377 30.06531308 33.0777251 33.80078125 33.9453125 C46.32883072 36.86787459 56.22801231 47.23519496 64 57 C64.33 57.66 64.66 58.32 65 59 C67.96104117 57.88674034 70.79253205 56.62718324 73.609375 55.1953125 C95.2715571 44.25620035 120.34846425 40.55224439 144.0546875 47.58984375 C153.11741172 50.6528151 161.88395217 54.95106327 170 60 C170.70962891 59.02160156 170.70962891 59.02160156 171.43359375 58.0234375 C178.42305782 48.78590019 186.47638544 42.47233912 198 40 C211.68462375 38.54518977 223.80615306 40.5863242 235 49 C242.11730887 55.62645999 246.59464898 62.35356143 248 72 C248.50748779 71.74307373 249.01497559 71.48614746 249.5378418 71.22143555 C272.66687116 59.61381356 272.66687116 59.61381356 285.453125 60.1875 C298.76754206 61.19908675 298.76754206 61.19908675 310.1875 55.375 C311.18308287 54.4623286 312.17156089 53.5418389 313.15234375 52.61328125 C326.80645968 40.08296087 345.73758337 39.26079781 363.19921875 39.82958984 C382.1085302 40.98010409 399.23552842 51.86055638 412.125 65.0625 C424.22708301 78.83908506 429.27160554 95.16718398 429.82421875 113.28515625 C429.96961332 116.35782822 430.11858823 119.06016927 431 122 C432.3813979 123.14554948 433.76935367 124.28423268 435.19140625 125.37890625 C445.73906045 134.83306715 453.14091112 150.39880787 454.18017578 164.43310547 C455.16282529 183.82194261 452.19639649 202.55734758 439.14086914 217.83886719 C430.96066402 226.87342057 421.48722869 233.78599018 410 238 C409.34 238 408.68 238 408 238 C407.855625 238.78375 407.71125 239.5675 407.5625 240.375 C407 243 407 243 406 245 C407.10923828 244.98952637 408.21847656 244.97905273 409.36132812 244.96826172 C413.50615162 244.93185679 417.65096118 244.90902542 421.79589844 244.89013672 C423.58433413 244.88012561 425.37275366 244.86651267 427.16113281 244.84912109 C429.74287934 244.82465638 432.32440804 244.81346779 434.90625 244.8046875 C436.09112 244.78920364 436.09112 244.78920364 437.29992676 244.77340698 C445.00689259 244.77187547 451.92705169 245.87173254 458 251 C463.05420979 256.99418387 463.74280797 262.34766386 463.6640625 270 C463.66884613 271.03511719 463.67362976 272.07023437 463.67855835 273.13671875 C463.68194568 275.31511972 463.6728255 277.49357233 463.65185547 279.671875 C463.62507468 282.99074531 463.65164473 286.30623386 463.68359375 289.625 C463.68028945 291.7500074 463.67388279 293.87501272 463.6640625 296 C463.67418365 296.98355469 463.68430481 297.96710938 463.69473267 298.98046875 C463.58373015 305.56259856 462.19980236 309.87970201 458 315 C455.97265625 316.875 455.97265625 316.875 454.0625 318 C453.43472656 318.391875 452.80695313 318.78375 452.16015625 319.1875 C449.37822632 320.23386786 446.95061182 320.05229887 444 320 C444.00276538 320.95966297 444.00276538 320.95966297 444.00558662 321.93871307 C444.04994001 337.57487915 444.08294079 353.21102306 444.10362434 368.84723663 C444.11389506 376.40908583 444.12787397 383.97089278 444.15087891 391.53271484 C444.17094262 398.13094314 444.1837469 404.72914082 444.18817699 411.32739878 C444.19076263 414.8144501 444.1967499 418.30141389 444.21146011 421.78843689 C444.36648948 460.08255788 444.36648948 460.08255788 438 474 C437.40251953 475.33417969 437.40251953 475.33417969 436.79296875 476.6953125 C428.81647331 492.83219953 414.65124435 503.94166028 397.81673115 509.75377321 C389.84093223 512.21182219 382.25552229 512.42817725 373.96601868 512.39440918 C372.46649619 512.39930631 370.96697749 512.4054999 369.4674651 512.41286707 C365.37297745 512.42918582 361.27868336 512.42696521 357.18417466 512.4214921 C352.75795736 512.41881186 348.33179051 512.43337238 343.90559387 512.44558716 C335.24354821 512.46660232 326.58156955 512.47118423 317.9195014 512.46939927 C310.87469809 512.46808953 303.82991559 512.47190659 296.7851162 512.47932434 C294.75266288 512.48142364 292.72020956 512.48352124 290.68775624 512.48561716 C289.17013037 512.48718245 289.17013037 512.48718245 287.62184539 512.48877937 C268.50266046 512.50766636 249.38351394 512.50663643 230.26432355 512.49981004 C212.79675055 512.4942372 195.32932434 512.51505173 177.86178563 512.54817051 C159.90319043 512.58195458 141.94466546 512.59706987 123.98603791 512.59245348 C113.9128973 512.59021337 103.83989231 512.5953846 93.76677895 512.62034607 C85.1896432 512.64142032 76.61271741 512.64489076 68.03557286 512.62604648 C63.66487353 512.61692581 59.29456503 512.61563199 54.92389679 512.63640213 C50.91215411 512.65525462 46.90111842 512.65045136 42.88940146 512.62785631 C41.44867336 512.62370617 40.0078895 512.62774784 38.56722061 512.64145225 C19.33382421 512.81175143 2.63462987 506.18697879 -11.390625 492.87109375 C-24.36171119 478.59901538 -29.33660499 462.42701662 -29.22705078 443.40209961 C-29.2264856 442.05103565 -29.22680531 440.69997108 -29.22793579 439.34890747 C-29.22850614 435.7069398 -29.2168038 432.06510571 -29.20278788 428.4231689 C-29.19022707 424.60752346 -29.18910582 420.79187447 -29.18673706 416.97621155 C-29.18053794 409.76224942 -29.16414849 402.54834841 -29.14403808 395.33441311 C-29.1216301 387.1167152 -29.11067336 378.89901426 -29.10064721 370.68129337 C-29.07978076 353.78749365 -29.04463548 336.8937533 -29 320 C-30.1031958 320.02126953 -31.2063916 320.04253906 -32.34301758 320.06445312 C-36.14000991 319.99753237 -37.60374168 319.58167527 -40.6875 317.5 C-41.77611328 316.80390625 -41.77611328 316.80390625 -42.88671875 316.09375 C-48.00985035 311.01796713 -49.45628665 305.3444598 -49.55578613 298.28540039 C-49.54768921 297.34559326 -49.53959229 296.40578613 -49.53125 295.4375 C-49.5350769 294.4467749 -49.53890381 293.4560498 -49.54284668 292.43530273 C-49.54555562 290.35106382 -49.5382662 288.2667903 -49.52148438 286.18261719 C-49.50006067 283.00898788 -49.52132141 279.83762216 -49.546875 276.6640625 C-49.54423154 274.63020338 -49.5391062 272.59634566 -49.53125 270.5625 C-49.53934692 269.62269287 -49.54744385 268.68288574 -49.55578613 267.71459961 C-49.45673279 260.68719243 -48.0116737 255.03470753 -42.95703125 249.94140625 C-37.5109375 246.43963741 -33.44779616 245.02682856 -27 245 C-26.32179199 244.99307129 -25.64358398 244.98614258 -24.94482422 244.97900391 C-19.96223473 244.93124746 -14.98249169 244.94851616 -10 245 C-10.52207031 244.23300781 -11.04414062 243.46601563 -11.58203125 242.67578125 C-28.11877787 217.94312401 -38.86546338 191.31581328 -44 162 C-44.12987305 161.30165039 -44.25974609 160.60330078 -44.39355469 159.88378906 C-45.7703145 152.22869599 -46.04854931 144.72988139 -46.0078125 136.96484375 C-46.00434311 136.23946411 -46.00087372 135.51408447 -45.99729919 134.76672363 C-45.9739559 131.0928372 -45.9254133 127.42148413 -45.83911133 123.74853516 C-45.71489867 116.82554464 -45.98081385 110.86555187 -48.3034668 104.30493164 C-49.55785915 100.15396138 -49.48792876 95.99315516 -49.4375 91.6875 C-49.42992676 90.77178223 -49.42235352 89.85606445 -49.41455078 88.91259766 C-49.02825566 72.92787468 -42.04137076 58.48673698 -31 47 C-23.98305026 40.84667484 -16.66460115 36.40835022 -8 33 C-7.07058594 32.62746094 -6.14117187 32.25492188 -5.18359375 31.87109375 C-4.46300781 31.58363281 -3.74242187 31.29617187 -3 31 C-4.07666203 29.2458877 -5.16163339 27.49687413 -6.25 25.75 C-6.85328125 24.77546875 -7.4565625 23.8009375 -8.078125 22.796875 C-9.87631572 19.9781347 -9.87631572 19.9781347 -12.171875 17.9140625 C-14.80436289 15.15782518 -14.90184709 12.94679258 -15.17578125 9.2578125 C-14.89880707 5.70023297 -13.29936798 3.62784911 -11 1 C-7.42967811 -0.78516095 -3.88188246 -0.72785296 0 0 Z " fill="#002677" transform="translate(49,0)"/>
<path d="M0 0 C142.23 0 284.46 0 431 0 C431 141.27586207 431 141.27586207 422 154 C421.55914062 154.63679687 421.11828125 155.27359375 420.6640625 155.9296875 C413.87259572 164.76252002 403.54951453 169.32531377 393 172 C388.5111801 172.48729259 384.08897445 172.47070018 379.578125 172.390625 C378.35212585 172.38496521 377.12612671 172.37930542 375.86297607 172.37347412 C371.99156721 172.35129034 368.12112365 172.30112623 364.25 172.25 C361.60678431 172.22991182 358.96355394 172.21166514 356.3203125 172.1953125 C349.87988541 172.15148464 343.4400117 172.0847547 337 172 C337.40978592 171.39114456 337.81957184 170.78228912 338.24177551 170.15498352 C339.04985909 168.94965218 339.04985909 168.94965218 339.87426758 167.7199707 C340.4078035 166.92549026 340.94133942 166.13100983 341.49104309 165.31245422 C350.79163015 151.05944162 355.71083286 134.87066118 352.60888672 117.85449219 C349.36641725 103.81352832 342.20889455 91.25248715 330.140625 83.05859375 C321.41106239 77.75217181 312.94247595 74.99789706 303 73 C303.804375 72.154375 304.60875 71.30875 305.4375 70.4375 C308.21469123 67.08271629 309 64.42414812 309 60 C307.65437601 57.05244268 306.91445456 55.45722728 304 54 C299.99439077 53.26868545 296.49547587 53.21034547 292.83984375 55.140625 C288.36797248 58.69054978 286.48893022 62.01828102 284.4375 67.3125 C283.00390625 70.4609375 283.00390625 70.4609375 281 73 C277.23503238 74.1908221 273.82770915 74.44023545 269.890625 74.66796875 C260.5031321 75.46911021 252.42669799 80.48939009 245 86 C243.453125 87.0828125 243.453125 87.0828125 241.875 88.1875 C232.80575074 96.02232367 226.73531639 110.07322875 225.85839844 121.91162109 C224.9130959 139.24878746 228.50957194 154.10506911 239.10986328 168.16625977 C239.92138351 169.24400414 239.92138351 169.24400414 240.7492981 170.34352112 C241.16202972 170.89015915 241.57476135 171.43679718 242 172 C215.47860344 172.09353734 188.9572317 172.16402533 162.43570328 172.20724869 C150.12065357 172.22785355 137.80570649 172.25593455 125.49072266 172.30175781 C114.75408697 172.34168902 104.01752563 172.3674479 93.28081775 172.37635398 C87.59842646 172.38155805 81.91624784 172.39374641 76.23392487 172.42292023 C70.87906719 172.45018852 65.52450861 172.45842194 60.16958809 172.45243073 C58.21051721 172.45352586 56.25143573 172.46141134 54.29242516 172.4768219 C38.26446992 172.59665896 25.54540246 170.6776386 13.25 159.5 C12.5075 158.675 11.765 157.85 11 157 C10.154375 156.071875 9.30875 155.14375 8.4375 154.1875 C5.63818809 150.77198736 3.8012607 147.01114074 2 143 C1.608125 142.13375 1.21625 141.2675 0.8125 140.375 C-0.94178359 135.24709412 -1.12597169 130.18251292 -1.12939453 124.80029297 C-1.13202301 123.75384109 -1.13202301 123.75384109 -1.13470459 122.68624878 C-1.13910868 120.37153636 -1.13617554 118.05690077 -1.1328125 115.7421875 C-1.13348936 114.08171576 -1.13446253 112.42124411 -1.13571167 110.76077271 C-1.13718949 107.24854608 -1.13504384 103.73634477 -1.13037109 100.22412109 C-1.12594469 96.7403796 -1.12566992 93.25669031 -1.13037109 89.77294922 C-1.16794707 59.83068041 -0.57589356 29.9464649 0 0 Z " fill="#F6B073" transform="translate(41,320)"/>
<path d="M0 0 C98.34 0 196.68 0 298 0 C296.35 1.32 294.7 2.64 293 4 C288.90655635 7.97429976 286.07514557 11.34864181 284.5 16.875 C283.59375 19.1640625 283.59375 19.1640625 282 21 C278.97963013 21.79994945 276.09879146 22.16547758 272.98779297 22.40478516 C262.64225 23.2097985 254.20716734 27.91028183 246 34 C244.96875 34.721875 243.9375 35.44375 242.875 36.1875 C233.80575074 44.02232367 227.73531639 58.07322875 226.85839844 69.91162109 C225.9130959 87.24878746 229.50957194 102.10506911 240.10986328 116.16625977 C240.65087677 116.88475601 241.19189026 117.60325226 241.7492981 118.34352112 C242.16202972 118.89015915 242.57476135 119.43679718 243 120 C216.47860344 120.09353734 189.9572317 120.16402533 163.43570328 120.20724869 C151.12065357 120.22785355 138.80570649 120.25593455 126.49072266 120.30175781 C115.75408697 120.34168902 105.01752563 120.3674479 94.28081775 120.37635398 C88.59842646 120.38155805 82.91624784 120.39374641 77.23392487 120.42292023 C71.87906719 120.45018852 66.52450861 120.45842194 61.16958809 120.45243073 C59.21051721 120.45352586 57.25143573 120.46141134 55.29242516 120.4768219 C39.26446992 120.59665896 26.54540246 118.6776386 14.25 107.5 C13.13625 106.2625 13.13625 106.2625 12 105 C11.154375 104.071875 10.30875 103.14375 9.4375 102.1875 C6.63818809 98.77198736 4.8012607 95.01114074 3 91 C2.608125 90.13375 2.21625 89.2675 1.8125 88.375 C-7.72480474 60.49672461 0 29.46452817 0 0 Z " fill="#FEE0BD" transform="translate(40,372)"/>
<path d="M0 0 C9.77463902 8.13559894 17.8738899 20.19872472 19.375 33.0703125 C19.60033565 38.3305479 19.56106876 43.58311438 19.40429688 48.8449707 C19.36272461 50.35063599 19.36272461 50.35063599 19.3203125 51.88671875 C19.28437988 52.78849854 19.24844727 53.69027832 19.21142578 54.61938477 C19.38956864 57.28860293 19.96672577 58.81482449 21.375 61.0703125 C23.03950474 62.50853987 23.03950474 62.50853987 25 63.7578125 C34.70899836 70.78846648 41.91949576 80.58770663 44.08984375 92.53515625 C45.76913173 107.46471652 42.60346039 119.93908455 33.88671875 132.15625 C26.43742167 141.43675853 16.58021273 145.85400144 5.375 149.0703125 C4.385 149.4003125 3.395 149.7303125 2.375 150.0703125 C1.55852105 151.99816576 1.55852105 151.99816576 1.0625 154.3828125 C-0.7837988 161.18858414 -3.5651929 169.0105054 -8.625 174.0703125 C-10.93258858 174.31640816 -10.93258858 174.31640816 -13.8767395 174.31082153 C-14.99015717 174.31357086 -16.10357483 174.31632019 -17.25073242 174.31915283 C-18.47783936 174.31196228 -19.70494629 174.30477173 -20.96923828 174.29736328 C-22.90088333 174.29780136 -22.90088333 174.29780136 -24.87155151 174.29824829 C-28.40856581 174.29882349 -31.9454452 174.28704223 -35.48242807 174.27310038 C-39.17666349 174.26062083 -42.87090179 174.25942472 -46.56515503 174.25704956 C-53.56331348 174.25082661 -60.56140964 174.23440481 -67.55954063 174.21435058 C-75.52556937 174.1920169 -83.49160104 174.18100453 -91.45765328 174.17095971 C-107.84680535 174.15003925 -124.23589474 174.11484749 -140.625 174.0703125 C-140.78872 155.45062199 -140.91205784 136.8310781 -140.9876852 118.21081638 C-141.02373808 109.56453411 -141.07286683 100.91869978 -141.15307617 92.27270508 C-141.22297575 84.73441842 -141.26803798 77.19645625 -141.28361946 69.6578545 C-141.292724 65.66819285 -141.3140301 61.67945927 -141.3651104 57.6900959 C-141.41286515 53.92975053 -141.42723355 50.17070932 -141.41675377 46.41008949 C-141.41957754 44.38273036 -141.4571228 42.35551116 -141.49594116 40.32852173 C-141.43676256 32.80094721 -140.47016671 28.41426487 -135.36749363 22.75662136 C-131.73594154 19.24216463 -127.98476298 16.61666682 -123.625 14.0703125 C-122.77679688 13.56113281 -121.92859375 13.05195312 -121.0546875 12.52734375 C-111.13204616 7.48121418 -97.36050071 7.19238932 -86.625 10.0703125 C-83.06675539 10.61773475 -80.68768553 10.79411012 -77.640625 8.71875 C-75.56828104 6.89540861 -73.58458666 5.01415951 -71.625 3.0703125 C-51.47833725 -16.87588594 -22.17407691 -16.3005863 0 0 Z " fill="#9ED943" transform="translate(438.625,71.9296875)"/>
<path d="M0 0 C42.24 0 84.48 0 128 0 C128.061875 12.9525 128.12375 25.905 128.1875 39.25 C128.22846802 45.35097168 128.22846802 45.35097168 128.27026367 51.57519531 C128.28381348 56.59912109 128.28381348 56.59912109 128.28633118 58.96209717 C128.29089316 60.58826166 128.3013498 62.21441695 128.31672668 63.84051514 C128.44443482 78.07564646 127.48180435 90.0084835 119 102 C118.33871094 102.95519531 118.33871094 102.95519531 117.6640625 103.9296875 C110.87259572 112.76252002 100.54951453 117.32531377 90 120 C85.5111801 120.48729259 81.08897445 120.47070018 76.578125 120.390625 C75.35212585 120.38496521 74.12612671 120.37930542 72.86297607 120.37347412 C68.99156721 120.35129034 65.12112365 120.30112623 61.25 120.25 C58.60678431 120.22991182 55.96355394 120.21166514 53.3203125 120.1953125 C46.87988541 120.15148464 40.4400117 120.0847547 34 120 C34.40978592 119.39114456 34.81957184 118.78228912 35.24177551 118.15498352 C35.78049789 117.35142929 36.31922028 116.54787506 36.87426758 115.7199707 C37.4078035 114.92549026 37.94133942 114.13100983 38.49104309 113.31245422 C47.79163015 99.05944162 52.71083286 82.87066118 49.60888672 65.85449219 C46.36641725 51.81352832 39.20889455 39.25248715 27.140625 31.05859375 C18.41106239 25.75217181 9.94247595 22.99789706 0 21 C0.804375 20.154375 1.60875 19.30875 2.4375 18.4375 C5.21469123 15.08271629 6 12.42414812 6 8 C4.42700275 4.53940605 2.71929057 2.71929057 0 0 Z " fill="#FEE0BD" transform="translate(344,372)"/>
<path d="M0 0 C4.92110989 3.36881348 8.42106798 7.71050349 10.74609375 13.1953125 C11.28093049 16.07762599 11.28352417 18.87833308 11.24729919 21.80381775 C11.25560079 23.0661401 11.25560079 23.0661401 11.26407009 24.35396391 C11.27763241 27.1606784 11.2627315 29.9664968 11.24780273 32.77319336 C11.25158754 34.7907804 11.25708892 36.80836485 11.26417542 38.82594299 C11.27812696 44.29707622 11.26696178 49.76789484 11.2504642 55.23901057 C11.23660226 60.96879615 11.24307516 66.69856368 11.24659729 72.42835999 C11.24929872 82.05116843 11.23583027 91.6738521 11.21264648 101.29663086 C11.1860448 112.41487308 11.18428755 123.53290658 11.19603485 134.65116972 C11.2068226 145.35393052 11.20061721 156.05661598 11.18647957 166.7593708 C11.18072768 171.31062162 11.18079622 175.86181716 11.18554497 180.41306877 C11.19032515 185.77540536 11.18016976 191.13751409 11.15859032 196.49980736 C11.15303621 198.46537762 11.15254448 200.43096984 11.15754318 202.3965416 C11.1635207 205.08455326 11.15094367 207.77187405 11.1337738 210.45982361 C11.13978385 211.23328139 11.14579389 212.00673917 11.15198606 212.80363506 C11.07774004 219.21831604 9.43479221 224.29075115 6.18359375 229.8828125 C1.25383054 234.55976734 -4.5328023 237.46199319 -11.37890625 237.7578125 C-17.79030453 237.39547288 -22.23500227 234.90016475 -27.06640625 230.8203125 C-32.55233144 224.23720227 -33.40304442 218.31032448 -33.40107727 210.02349854 C-33.40475396 209.19268068 -33.40843065 208.36186283 -33.41221875 207.50586867 C-33.42324494 204.71777339 -33.42709761 201.92971538 -33.4309082 199.14160156 C-33.4371736 197.14416384 -33.44382047 195.14672728 -33.45082092 193.14929199 C-33.47185263 186.58651541 -33.4822217 180.0237386 -33.4921875 173.4609375 C-33.49623523 171.20135231 -33.50035216 168.94176725 -33.50453758 166.68218231 C-33.52358639 156.06753459 -33.53781872 145.45289381 -33.54614955 134.83823228 C-33.55592465 122.58580104 -33.58225269 110.33355033 -33.62265044 98.08118272 C-33.65280628 88.61014091 -33.66761789 79.13915086 -33.67093056 69.66806197 C-33.67328143 64.01157989 -33.682247 58.35529075 -33.70739174 52.69886017 C-33.73066834 47.37677763 -33.73490723 42.05501514 -33.72463036 36.7328949 C-33.72413481 34.78182155 -33.73046084 32.83073247 -33.7441864 30.87970734 C-33.76190669 28.21110955 -33.7547987 25.54366021 -33.74165344 22.87506104 C-33.75262269 22.10733879 -33.76359193 21.33961655 -33.77489358 20.54863 C-33.697519 14.01959532 -31.60084542 8.87352937 -27.2890625 3.953125 C-18.87468322 -3.01164834 -10.1042174 -5.81449935 0 0 Z " fill="#FDE0BD" transform="translate(267.25390625,62.8046875)"/>
<path d="M0 0 C0.66 0.66 1.32 1.32 2 2 C1.113125 2.969375 0.22625 3.93875 -0.6875 4.9375 C-7.34775291 12.73141298 -11.79035114 21.5278474 -11 32 C-9.81232145 35.38031589 -9.10174775 35.93216817 -6 38 C-2.19037041 38.42329218 0.22348891 38.37922635 3.6875 36.6875 C6.0643167 33.92525357 6.75475752 32.15799505 7.875 28.75 C10.48550167 20.98064978 14.61162013 16.05641269 21.75 12 C28.12164361 9.16172239 34.05111458 8.70649785 40.70703125 10.88671875 C46.40419674 13.45770348 50.60009192 16.73596786 54 22 C54.55042969 22.845625 55.10085937 23.69125 55.66796875 24.5625 C57.80794546 30.08502054 57.05386254 35.55303376 56.70703125 41.38867188 C56.49770833 47.15483379 56.49770833 47.15483379 59.28515625 52.125 C62.79564947 54.5495133 64.81167089 54.53306007 69 54 C71.31749122 53.59130748 71.31749122 53.59130748 73 52 C76.11480844 46.21317451 76.40432912 41.43379155 76.25 34.9375 C76.24226563 33.62942383 76.24226563 33.62942383 76.234375 32.29492188 C76.17949218 27.76365923 75.90746072 23.45680308 75 19 C80.9365278 18.8900643 83.79663993 20.21921207 88.3125 24.125 C92.10505273 27.83016672 94.72983309 30.73787995 96 36 C96 47 96 47 82 86 C43.06 86 4.12 86 -36 86 C-35.35413228 75.02024868 -34.62761172 64.12363757 -33.5625 53.1875 C-33.35897342 51.09348617 -33.15557416 48.99946003 -32.95225525 46.90542603 C-32.81849747 45.52905797 -32.6842786 44.15273463 -32.54957581 42.77645874 C-32.16092269 38.77664042 -31.81241407 34.77597693 -31.5 30.76953125 C-31.42450928 29.86372314 -31.34901855 28.95791504 -31.27124023 28.0246582 C-31.13803145 26.41353304 -31.01653442 24.80136739 -30.91040039 23.18823242 C-30.3554622 16.81257719 -28.26495467 11.63174895 -24.0703125 6.7578125 C-16.49765405 0.40164536 -9.88937006 -1.00670234 0 0 Z " fill="#FD5F4E" transform="translate(118,160)"/>
<path d="M0 0 C1.31484375 0.00737183 1.31484375 0.00737183 2.65625 0.01489258 C9.51872809 0.13843239 15.69382596 0.99598877 22.1875 3.3125 C23.19039063 3.66441406 24.19328125 4.01632813 25.2265625 4.37890625 C32.30132524 7.0923912 38.18492106 10.7235719 44.1875 15.3125 C44.88260681 15.67922318 45.57771362 16.04594635 46.29388428 16.42378235 C48.69460984 18.81829814 48.65899657 20.5844214 48.68518066 23.8895874 C48.67079956 24.64556213 48.65641846 25.40153687 48.64160156 26.18041992 C48.64218567 26.98065079 48.64276978 27.78088165 48.64337158 28.60536194 C48.64058376 31.25167143 48.60945985 33.89685594 48.578125 36.54296875 C48.57066507 38.37713506 48.56497097 40.21130933 48.56097412 42.04548645 C48.54569823 46.87407418 48.50639967 51.70218097 48.4621582 56.53057861 C48.42124759 61.45716851 48.40297211 66.38383609 48.3828125 71.31054688 C48.33990724 80.97807595 48.27163232 90.64524799 48.1875 100.3125 C46.97513672 99.78849609 46.97513672 99.78849609 45.73828125 99.25390625 C44.66964844 98.79886719 43.60101563 98.34382813 42.5 97.875 C41.44425781 97.42253906 40.38851562 96.97007812 39.30078125 96.50390625 C33.97258141 94.46488373 29.31650937 94.17619611 23.625 94.1875 C21.67400391 94.18363281 21.67400391 94.18363281 19.68359375 94.1796875 C16.35831516 94.17113865 16.35831516 94.17113865 13.92578125 94.94140625 C12.1875 95.3125 12.1875 95.3125 8.9375 93.375 C8.03 92.694375 7.1225 92.01375 6.1875 91.3125 C6.33834267 86.33469181 9.01208026 84.17070366 12.40234375 80.93359375 C13.76336317 79.69765708 15.1562459 78.49671398 16.5625 77.3125 C18.93129893 74.39705516 19.05753769 72.01642589 19.1875 68.3125 C18.58485818 65.46674056 18.58485818 65.46674056 17.1875 63.3125 C12.47313487 61.74104496 8.47258995 61.28558136 3.91015625 63.3359375 C-4.65784789 68.63784775 -9.71241782 76.29231921 -13.8125 85.3125 C-15.18185738 85.50421003 -16.5592861 85.63856026 -17.9375 85.75 C-18.70320313 85.83121094 -19.46890625 85.91242188 -20.2578125 85.99609375 C-26.97361583 84.19905157 -30.95836168 75.23363788 -34.3125 69.625 C-35.0226123 68.43970703 -35.0226123 68.43970703 -35.74707031 67.23046875 C-37.11322622 64.93075737 -38.46402898 62.62261107 -39.8125 60.3125 C-40.17537109 59.70583496 -40.53824219 59.09916992 -40.91210938 58.47412109 C-41.82391203 56.93670534 -42.69494659 55.37531233 -43.5625 53.8125 C-44.26632813 52.55953125 -44.26632813 52.55953125 -44.984375 51.28125 C-46.0095628 47.60604845 -45.60054661 44.79547108 -45.11035156 41.04638672 C-44.8063739 38.25627041 -44.77223866 35.57456811 -44.8125 32.76953125 C-44.90197574 18.29336498 -44.90197574 18.29336498 -42.30859375 13.578125 C-39.90385425 11.58862515 -37.69968371 10.50953314 -34.8125 9.3125 C-33.53022214 8.69491865 -32.25043587 8.07214779 -30.97265625 7.4453125 C-20.73220907 2.59330545 -11.4084419 -0.07627737 0 0 Z " fill="#26A1CB" transform="translate(165.8125,64.6875)"/>
<path d="M0 0 C64.02 0 128.04 0 194 0 C194.33 5.94 194.66 11.88 195 18 C196.21588668 22.52157861 197.37825333 26.66858493 199 31 C199.33 31.99 199.66 32.98 200 34 C134 34 68 34 0 34 C0 22.78 0 11.56 0 0 Z " fill="#F4AE73" transform="translate(20,266)"/>
<path d="M0 0 C64.02 0 128.04 0 194 0 C194 11.22 194 22.44 194 34 C128 34 62 34 -6 34 C-4.35 29.38 -2.7 24.76 -1 20 C-0.67 13.4 -0.34 6.8 0 0 Z " fill="#F5AE73" transform="translate(298,266)"/>
<path d="M0 0 C1.23685547 -0.00773437 2.47371094 -0.01546875 3.74804688 -0.0234375 C16.66600641 0.00417973 27.69628325 2.43382082 37.34375 11.46875 C43.6958805 18.05186706 46.18503436 25.49632691 46.5 34.5 C46.1524942 46.92333243 41.59068845 58.22467496 33.11328125 67.34765625 C28.86176582 71.28176974 24.37002482 73.98025937 19.0625 76.25 C17.763125 76.8378125 17.763125 76.8378125 16.4375 77.4375 C5.00625963 81.34818749 -8.09769234 80.26380153 -18.9375 75.25 C-30.85031295 69.02886435 -37.88887724 58.96035074 -42.25 46.5 C-44.4993431 35.83724859 -43.48585165 25.58634222 -38.1875 16.125 C-33.29556629 9.87419581 -28.4632128 5.08558107 -20.9375 2.25 C-19.98746094 1.89035156 -19.03742188 1.53070313 -18.05859375 1.16015625 C-12.19971084 -0.45950562 -6.02472173 -0.03755671 0 0 Z " fill="#FD5F4E" transform="translate(328.9375,412.75)"/>
<path d="M0 0 C5.57894737 3.15789474 5.57894737 3.15789474 7 6 C7.24750575 11.80686561 6.62175238 17.11525735 5.5625 22.8125 C4.37280795 29.52937522 3.43531297 36.18510036 3 43 C6.0311181 39.98095807 9.04106452 36.94257864 12.0390625 33.890625 C20.04281791 25.77358835 27.96207758 17.96364514 37 11 C38.17949219 9.96746094 38.17949219 9.96746094 39.3828125 8.9140625 C45.61096152 3.572633 45.61096152 3.572633 50.25 3.3125 C54.35264096 4.06465084 56.12050839 5.03325107 59 8 C60.63023814 11.26047629 60.4673535 13.37801035 60 17 C56.25046924 23.12880111 50.17745343 27.43295655 44.63671875 31.83984375 C41.77724763 34.18249194 39.22129238 36.6818325 36.66015625 39.33984375 C34.93321125 41.06678875 33.12117609 42.61873621 31.25 44.1875 C27.59120604 47.33593174 24.32002072 50.75956168 21.0625 54.3125 C20.33498535 55.10466919 20.33498535 55.10466919 19.59277344 55.9128418 C17.00371892 58.74788033 17.00371892 58.74788033 15 62 C14.34 62 13.68 62 13 62 C13 62.66 13 63.32 13 64 C16.91715725 63.88821106 20.83351228 63.758063 24.75 63.625 C26.38775391 63.57859375 26.38775391 63.57859375 28.05859375 63.53125 C34.631058 63.29790807 40.94540489 62.65743177 47.41357422 61.45825195 C55.87600086 59.95891508 55.87600086 59.95891508 59.78515625 61.875 C62.8150529 64.05251438 63.96859719 65.89840269 65.0625 69.4375 C64.98843622 73.65913571 64.54026274 75.61298301 62 79 C44.43703598 88.45698063 17.15126465 84.84779326 -2 83 C-4.21233234 86.28899469 -6.41910183 89.58168724 -8.625 92.875 C-9.55119141 94.25171875 -9.55119141 94.25171875 -10.49609375 95.65625 C-14.10672306 101.05319065 -17.56355077 106.5046734 -20.84912109 112.10595703 C-22 114 -22 114 -23 115 C-25.53049402 115.07313567 -28.03304837 115.09247527 -30.5625 115.0625 C-31.27341797 115.05798828 -31.98433594 115.05347656 -32.71679688 115.04882812 C-34.47790013 115.03700864 -36.23896036 115.01907263 -38 115 C-40.37745013 102.88632555 -36.15216647 95.71263806 -29.50732422 85.76708984 C-24.62036705 78.66707406 -24.62036705 78.66707406 -22.20678711 76.07177734 C-16.57390309 69.86173656 -17.43705046 63.52284129 -17.8125 55.5 C-17.88945123 52.72551494 -17.93697181 49.95102987 -17.9765625 47.17578125 C-17.9877562 46.48410355 -17.99894989 45.79242584 -18.01048279 45.07978821 C-18.07892838 38.55296101 -17.53324204 32.15962503 -16.6875 25.6875 C-16.51021362 24.27791016 -16.51021362 24.27791016 -16.3293457 22.83984375 C-14.00950583 6.34320462 -14.00950583 6.34320462 -9.1875 1.875 C-5.59485902 -0.23831822 -4.078513 -0.76472119 0 0 Z " fill="#7FB800" transform="translate(336,131)"/>
<path d="M0 0 C1.38671875 1.75 1.38671875 1.75 2.6875 4 C6.98451708 10.80995618 13.03408149 18.57559002 21 21 C28.37708463 21.43394615 33.74665848 16.65929882 39 12 C42.59137901 8.21201265 45.82210297 4.13609158 49 0 C51.00958663 0.63718601 53.00736409 1.31163487 55 2 C56.15628906 2.29777344 57.31257813 2.59554687 58.50390625 2.90234375 C63.96816408 5.29530665 65.68853063 11.43310789 67.9375 16.5625 C68.43056641 17.62919922 68.92363281 18.69589844 69.43164062 19.79492188 C73 27.6096784 73 27.6096784 73 30 C71.96101563 30.14695313 70.92203125 30.29390625 69.8515625 30.4453125 C56.93375157 32.44782137 47.49742195 36.62479954 39 47 C33.48565147 55.19972139 30.67903278 63.60571324 29.90234375 73.37890625 C29.82309158 74.26107819 29.74383942 75.14325012 29.66218567 76.05215454 C29.40994191 78.88811752 29.17351426 81.72514473 28.9375 84.5625 C28.76761712 86.5063553 28.59671619 88.45012189 28.42480469 90.39379883 C28.01138625 95.09374878 27.6100222 99.79462623 27.21282959 104.49597168 C26.91672145 107.97980664 26.60938524 111.4625619 26.30078125 114.9453125 C25.85691849 119.96271324 25.42337064 124.98082965 25 130 C24.34 130 23.68 130 23 130 C21.39319303 128.07801166 19.93902877 126.16892171 18.5 124.125 C18.06002686 123.50149658 17.62005371 122.87799316 17.16674805 122.2355957 C3.57038337 102.54539209 -4.84364976 81.01392278 -11 58 C-11.1964209 57.27361328 -11.3928418 56.54722656 -11.59521484 55.79882812 C-15.84487981 39.12550148 -14.2690461 21.06166178 -14 4 C-12.42466914 3.13116294 -10.83935491 2.28040932 -9.25 1.4375 C-8.36828125 0.96183594 -7.4865625 0.48617187 -6.578125 -0.00390625 C-3.7748747 -1.08698023 -2.72175962 -1.17893794 0 0 Z " fill="#D73887" transform="translate(38,110)"/>
<path d="M0 0 C10.11712369 5.14456521 17.11060591 13.30394076 21.16796875 23.84765625 C22.50634428 28.91840296 22.41465216 33.8030263 22 39 C17.2769874 38.00246717 13.65927768 35.60206121 10.1875 32.25 C6.60900929 30.20514817 3.00928116 30.36890945 -1 31 C-4.45561928 33.11176734 -5.57110556 36.13641736 -7.25 39.6875 C-9.9261699 45.33346346 -13.66860667 49.55038005 -18 54 C-23.5382578 48.93645002 -27.37695147 43.50176127 -29.5 36.25 C-30.45351804 33.18285029 -31.06047558 31.93112504 -33.25 29.4375 C-37.05871053 27.44658313 -38.72925633 27.1598537 -43 28 C-45.69528014 29.82637919 -48.12310656 31.81083946 -50.5703125 33.95703125 C-56.56787763 39 -56.56787763 39 -60 39 C-60.8021141 26.76775994 -55.9689493 17.47269488 -48.48046875 8.09765625 C-35.87101254 -5.92307729 -16.47381864 -7.04140584 0 0 Z " fill="#9CD743" transform="translate(80,55)"/>
</svg>
